<svg xmlns="http://www.w3.org/2000/svg" xmlns:xlink="http://www.w3.org/1999/xlink" width="500" zoomAndPan="magnify" viewBox="0 0 375 374.999991" height="500" preserveAspectRatio="xMidYMid meet" version="1.0"><defs><clipPath id="14e187a95f"><path d="M 43.933594 224.707031 L 64.445312 224.707031 L 64.445312 245.21875 L 43.933594 245.21875 Z M 43.933594 224.707031 " clip-rule="nonzero"/></clipPath><clipPath id="6b620d41ba"><path d="M 54.1875 224.707031 C 48.527344 224.707031 43.933594 229.300781 43.933594 234.960938 C 43.933594 240.625 48.527344 245.21875 54.1875 245.21875 C 59.851562 245.21875 64.445312 240.625 64.445312 234.960938 C 64.445312 229.300781 59.851562 224.707031 54.1875 224.707031 " clip-rule="nonzero"/></clipPath><clipPath id="24ca37b67a"><path d="M 101.378906 178.757812 L 121.886719 178.757812 L 121.886719 199.269531 L 101.378906 199.269531 Z M 101.378906 178.757812 " clip-rule="nonzero"/></clipPath><clipPath id="337f628ad8"><path d="M 111.632812 178.757812 C 105.96875 178.757812 101.378906 183.351562 101.378906 189.015625 C 101.378906 194.675781 105.96875 199.269531 111.632812 199.269531 C 117.296875 199.269531 121.886719 194.675781 121.886719 189.015625 C 121.886719 183.351562 117.296875 178.757812 111.632812 178.757812 " clip-rule="nonzero"/></clipPath><clipPath id="1433f09c82"><path d="M 167.121094 177.417969 L 187.628906 177.417969 L 187.628906 197.925781 L 167.121094 197.925781 Z M 167.121094 177.417969 " clip-rule="nonzero"/></clipPath><clipPath id="633f82a7b0"><path d="M 177.375 177.417969 C 171.710938 177.417969 167.121094 182.007812 167.121094 187.671875 C 167.121094 193.335938 171.710938 197.925781 177.375 197.925781 C 183.039062 197.925781 187.628906 193.335938 187.628906 187.671875 C 187.628906 182.007812 183.039062 177.417969 177.375 177.417969 " clip-rule="nonzero"/></clipPath><clipPath id="ad09cbf612"><path d="M 204.144531 121.238281 L 224.652344 121.238281 L 224.652344 141.75 L 204.144531 141.75 Z M 204.144531 121.238281 " clip-rule="nonzero"/></clipPath><clipPath id="1ed9270fb0"><path d="M 214.398438 121.238281 C 208.734375 121.238281 204.144531 125.832031 204.144531 131.496094 C 204.144531 137.160156 208.734375 141.75 214.398438 141.75 C 220.0625 141.75 224.652344 137.160156 224.652344 131.496094 C 224.652344 125.832031 220.0625 121.238281 214.398438 121.238281 " clip-rule="nonzero"/></clipPath><clipPath id="45fa3aa1a2"><path d="M 233.296875 90.800781 L 253.808594 90.800781 L 253.808594 111.3125 L 233.296875 111.3125 Z M 233.296875 90.800781 " clip-rule="nonzero"/></clipPath><clipPath id="682eb78d35"><path d="M 243.550781 90.800781 C 237.886719 90.800781 233.296875 95.394531 233.296875 101.054688 C 233.296875 106.71875 237.886719 111.3125 243.550781 111.3125 C 249.214844 111.3125 253.808594 106.71875 253.808594 101.054688 C 253.808594 95.394531 249.214844 90.800781 243.550781 90.800781 " clip-rule="nonzero"/></clipPath><clipPath id="b0c411f5f1"><path d="M 43.933594 282.445312 L 64.445312 282.445312 L 64.445312 302.953125 L 43.933594 302.953125 Z M 43.933594 282.445312 " clip-rule="nonzero"/></clipPath><clipPath id="52e81ac2ef"><path d="M 54.1875 282.445312 C 48.527344 282.445312 43.933594 287.035156 43.933594 292.699219 C 43.933594 298.363281 48.527344 302.953125 54.1875 302.953125 C 59.851562 302.953125 64.445312 298.363281 64.445312 292.699219 C 64.445312 287.035156 59.851562 282.445312 54.1875 282.445312 " clip-rule="nonzero"/></clipPath><clipPath id="3c9dcb8b46"><path d="M 111.632812 245.21875 L 132.140625 245.21875 L 132.140625 265.726562 L 111.632812 265.726562 Z M 111.632812 245.21875 " clip-rule="nonzero"/></clipPath><clipPath id="72dbefceb1"><path d="M 121.886719 245.21875 C 116.222656 245.21875 111.632812 249.808594 111.632812 255.472656 C 111.632812 261.136719 116.222656 265.726562 121.886719 265.726562 C 127.550781 265.726562 132.140625 261.136719 132.140625 255.472656 C 132.140625 249.808594 127.550781 245.21875 121.886719 245.21875 " clip-rule="nonzero"/></clipPath><clipPath id="2fe941b2eb"><path d="M 119.519531 131.046875 L 140.027344 131.046875 L 140.027344 151.554688 L 119.519531 151.554688 Z M 119.519531 131.046875 " clip-rule="nonzero"/></clipPath><clipPath id="86b2fedf35"><path d="M 129.773438 131.046875 C 124.109375 131.046875 119.519531 135.636719 119.519531 141.300781 C 119.519531 146.964844 124.109375 151.554688 129.773438 151.554688 C 135.4375 151.554688 140.027344 146.964844 140.027344 141.300781 C 140.027344 135.636719 135.4375 131.046875 129.773438 131.046875 " clip-rule="nonzero"/></clipPath><clipPath id="b7ed426869"><path d="M 204.144531 153.371094 L 224.652344 153.371094 L 224.652344 173.878906 L 204.144531 173.878906 Z M 204.144531 153.371094 " clip-rule="nonzero"/></clipPath><clipPath id="0478a31711"><path d="M 214.398438 153.371094 C 208.734375 153.371094 204.144531 157.960938 204.144531 163.625 C 204.144531 169.289062 208.734375 173.878906 214.398438 173.878906 C 220.0625 173.878906 224.652344 169.289062 224.652344 163.625 C 224.652344 157.960938 220.0625 153.371094 214.398438 153.371094 " clip-rule="nonzero"/></clipPath><clipPath id="18b5f16249"><path d="M 310.554688 96.761719 L 331.066406 96.761719 L 331.066406 117.269531 L 310.554688 117.269531 Z M 310.554688 96.761719 " clip-rule="nonzero"/></clipPath><clipPath id="7a93697b11"><path d="M 320.8125 96.761719 C 315.148438 96.761719 310.554688 101.351562 310.554688 107.015625 C 310.554688 112.679688 315.148438 117.269531 320.8125 117.269531 C 326.472656 117.269531 331.066406 112.679688 331.066406 107.015625 C 331.066406 101.351562 326.472656 96.761719 320.8125 96.761719 " clip-rule="nonzero"/></clipPath><clipPath id="7e8e97a832"><path d="M 49.183594 253.925781 L 69.40625 253.925781 L 69.40625 274.148438 L 49.183594 274.148438 Z M 49.183594 253.925781 " clip-rule="nonzero"/></clipPath><clipPath id="a275bc7df4"><path d="M 59.296875 253.925781 C 53.710938 253.925781 49.183594 258.453125 49.183594 264.039062 C 49.183594 269.621094 53.710938 274.148438 59.296875 274.148438 C 64.878906 274.148438 69.40625 269.621094 69.40625 264.039062 C 69.40625 258.453125 64.878906 253.925781 59.296875 253.925781 " clip-rule="nonzero"/></clipPath><clipPath id="0a5e95429c"><path d="M 116.664062 292.699219 L 136.890625 292.699219 L 136.890625 312.921875 L 116.664062 312.921875 Z M 116.664062 292.699219 " clip-rule="nonzero"/></clipPath><clipPath id="b6cae38390"><path d="M 126.777344 292.699219 C 121.191406 292.699219 116.664062 297.226562 116.664062 302.8125 C 116.664062 308.394531 121.191406 312.921875 126.777344 312.921875 C 132.363281 312.921875 136.890625 308.394531 136.890625 302.8125 C 136.890625 297.226562 132.363281 292.699219 126.777344 292.699219 " clip-rule="nonzero"/></clipPath><clipPath id="2fa15a7e35"><path d="M 166.019531 219.105469 L 186.246094 219.105469 L 186.246094 239.332031 L 166.019531 239.332031 Z M 166.019531 219.105469 " clip-rule="nonzero"/></clipPath><clipPath id="96cdbfd7ac"><path d="M 176.132812 219.105469 C 170.550781 219.105469 166.019531 223.632812 166.019531 229.21875 C 166.019531 234.800781 170.550781 239.332031 176.132812 239.332031 C 181.71875 239.332031 186.246094 234.800781 186.246094 229.21875 C 186.246094 223.632812 181.71875 219.105469 176.132812 219.105469 " clip-rule="nonzero"/></clipPath><clipPath id="15a16197ba"><path d="M 231.90625 194.199219 L 252.132812 194.199219 L 252.132812 214.421875 L 231.90625 214.421875 Z M 231.90625 194.199219 " clip-rule="nonzero"/></clipPath><clipPath id="3189077536"><path d="M 242.019531 194.199219 C 236.433594 194.199219 231.90625 198.726562 231.90625 204.308594 C 231.90625 209.894531 236.433594 214.421875 242.019531 214.421875 C 247.605469 214.421875 252.132812 209.894531 252.132812 204.308594 C 252.132812 198.726562 247.605469 194.199219 242.019531 194.199219 " clip-rule="nonzero"/></clipPath><clipPath id="969f528201"><path d="M 271.585938 62.078125 L 291.8125 62.078125 L 291.8125 82.300781 L 271.585938 82.300781 Z M 271.585938 62.078125 " clip-rule="nonzero"/></clipPath><clipPath id="8425281cb8"><path d="M 281.699219 62.078125 C 276.113281 62.078125 271.585938 66.605469 271.585938 72.1875 C 271.585938 77.773438 276.113281 82.300781 281.699219 82.300781 C 287.285156 82.300781 291.8125 77.773438 291.8125 72.1875 C 291.8125 66.605469 287.285156 62.078125 281.699219 62.078125 " clip-rule="nonzero"/></clipPath></defs><g clip-path="url(#14e187a95f)"><g clip-path="url(#6b620d41ba)"><path fill="#facb3b" d="M 43.933594 224.707031 L 64.445312 224.707031 L 64.445312 245.21875 L 43.933594 245.21875 Z M 43.933594 224.707031 " fill-opacity="1" fill-rule="nonzero"/></g></g><path stroke-linecap="butt" transform="matrix(0.594415, -0.463349, 0.461091, 0.591519, 54.428972, 231.882143)" fill="none" stroke-linejoin="miter" d="M 0.00162505 2.498625 L 92.55005 2.497546 " stroke="#facb3b" stroke-width="5" stroke-opacity="1" stroke-miterlimit="4"/><g clip-path="url(#24ca37b67a)"><g clip-path="url(#337f628ad8)"><path fill="#facb3b" d="M 101.378906 178.757812 L 121.886719 178.757812 L 121.886719 199.269531 L 101.378906 199.269531 Z M 101.378906 178.757812 " fill-opacity="1" fill-rule="nonzero"/></g></g><path stroke-linecap="butt" transform="matrix(0.747548, -0.00525876, 0.00527588, 0.749981, 112.923199, 186.251297)" fill="none" stroke-linejoin="miter" d="M 0.0014987 2.498344 L 72.24811 2.499706 " stroke="#facb3b" stroke-width="5" stroke-opacity="1" stroke-miterlimit="4"/><g clip-path="url(#1433f09c82)"><g clip-path="url(#633f82a7b0)"><path fill="#facb3b" d="M 167.121094 177.417969 L 187.628906 177.417969 L 187.628906 197.925781 L 167.121094 197.925781 Z M 167.121094 177.417969 " fill-opacity="1" fill-rule="nonzero"/></g></g><path stroke-linecap="butt" transform="matrix(0.404406, -0.632669, 0.631931, 0.403934, 181.31573, 178.018275)" fill="none" stroke-linejoin="miter" d="M 0.000122883 2.498296 L 66.931706 2.502734 " stroke="#facb3b" stroke-width="5" stroke-opacity="1" stroke-miterlimit="4"/><g clip-path="url(#ad09cbf612)"><g clip-path="url(#1ed9270fb0)"><path fill="#facb3b" d="M 204.144531 121.238281 L 224.652344 121.238281 L 224.652344 141.75 L 204.144531 141.75 Z M 204.144531 121.238281 " fill-opacity="1" fill-rule="nonzero"/></g></g><path stroke-linecap="butt" transform="matrix(0.521594, -0.544565, 0.541631, 0.518783, 220.13627, 122.79005)" fill="none" stroke-linejoin="miter" d="M 0.00271409 2.500785 L 28.851937 2.499494 " stroke="#facb3b" stroke-width="5" stroke-opacity="1" stroke-miterlimit="4"/><g clip-path="url(#45fa3aa1a2)"><g clip-path="url(#682eb78d35)"><path fill="#facb3b" d="M 233.296875 90.800781 L 253.808594 90.800781 L 253.808594 111.3125 L 233.296875 111.3125 Z M 233.296875 90.800781 " fill-opacity="1" fill-rule="nonzero"/></g></g><g clip-path="url(#b0c411f5f1)"><g clip-path="url(#52e81ac2ef)"><path fill="#facb3b" d="M 43.933594 282.445312 L 64.445312 282.445312 L 64.445312 302.953125 L 43.933594 302.953125 Z M 43.933594 282.445312 " fill-opacity="1" fill-rule="nonzero"/></g></g><path stroke-linecap="butt" transform="matrix(0.660177, -0.363028, 0.361386, 0.657191, 62.272976, 286.112823)" fill="none" stroke-linejoin="miter" d="M 0.000442815 2.497363 L 75.659514 2.499722 " stroke="#facb3b" stroke-width="5" stroke-opacity="1" stroke-miterlimit="4"/><g clip-path="url(#3c9dcb8b46)"><g clip-path="url(#72dbefceb1)"><path fill="#facb3b" d="M 111.632812 245.21875 L 132.140625 245.21875 L 132.140625 265.726562 L 111.632812 265.726562 Z M 111.632812 245.21875 " fill-opacity="1" fill-rule="nonzero"/></g></g><path stroke-linecap="butt" transform="matrix(0.0515891, -0.746817, 0.748217, 0.0516858, 120.719586, 245.108758)" fill="none" stroke-linejoin="miter" d="M -0.000437186 2.49965 L 125.244677 2.499191 " stroke="#facb3b" stroke-width="5" stroke-opacity="1" stroke-miterlimit="4"/><g clip-path="url(#2fe941b2eb)"><g clip-path="url(#86b2fedf35)"><path fill="#facb3b" d="M 119.519531 131.046875 L 140.027344 131.046875 L 140.027344 151.554688 L 119.519531 151.554688 Z M 119.519531 131.046875 " fill-opacity="1" fill-rule="nonzero"/></g></g><path stroke-linecap="butt" transform="matrix(0.706789, 0.243029, -0.243873, 0.709243, 140.082929, 142.864078)" fill="none" stroke-linejoin="miter" d="M -0.000951242 2.499667 L 99.347931 2.499522 " stroke="#facb3b" stroke-width="5" stroke-opacity="1" stroke-miterlimit="4"/><g clip-path="url(#b7ed426869)"><g clip-path="url(#0478a31711)"><path fill="#facb3b" d="M 204.144531 153.371094 L 224.652344 153.371094 L 224.652344 173.878906 L 204.144531 173.878906 Z M 204.144531 153.371094 " fill-opacity="1" fill-rule="nonzero"/></g></g><path stroke-linecap="butt" transform="matrix(0.660351, -0.351297, 0.352246, 0.662135, 222.572378, 157.152162)" fill="none" stroke-linejoin="miter" d="M -0.000530318 2.50137 L 133.363534 2.499528 " stroke="#facb3b" stroke-width="5" stroke-opacity="1" stroke-miterlimit="4"/><g clip-path="url(#18b5f16249)"><g clip-path="url(#7a93697b11)"><path fill="#facb3b" d="M 310.554688 96.761719 L 331.066406 96.761719 L 331.066406 117.269531 L 310.554688 117.269531 Z M 310.554688 96.761719 " fill-opacity="1" fill-rule="nonzero"/></g></g><g clip-path="url(#7e8e97a832)"><g clip-path="url(#a275bc7df4)"><path fill="#facb3b" d="M 49.183594 253.925781 L 69.40625 253.925781 L 69.40625 274.148438 L 49.183594 274.148438 Z M 49.183594 253.925781 " fill-opacity="1" fill-rule="nonzero"/></g></g><path stroke-linecap="butt" transform="matrix(0.652016, 0.37464, -0.373651, 0.650296, 68.999107, 267.450714)" fill="none" stroke-linejoin="miter" d="M 0.00275271 2.500984 L 76.800212 2.498157 " stroke="#facb3b" stroke-width="5" stroke-opacity="1" stroke-miterlimit="4"/><g clip-path="url(#0a5e95429c)"><g clip-path="url(#b6cae38390)"><path fill="#facb3b" d="M 116.664062 292.699219 L 136.890625 292.699219 L 136.890625 312.921875 L 116.664062 312.921875 Z M 116.664062 292.699219 " fill-opacity="1" fill-rule="nonzero"/></g></g><path stroke-linecap="butt" transform="matrix(0.416966, -0.621708, 0.622882, 0.417753, 130.851296, 293.364619)" fill="none" stroke-linejoin="miter" d="M -0.0000481784 2.50269 L 91.177688 2.498871 " stroke="#facb3b" stroke-width="5" stroke-opacity="1" stroke-miterlimit="4"/><g clip-path="url(#2fa15a7e35)"><g clip-path="url(#96cdbfd7ac)"><path fill="#facb3b" d="M 166.019531 219.105469 L 186.246094 219.105469 L 186.246094 239.332031 L 166.019531 239.332031 Z M 166.019531 219.105469 " fill-opacity="1" fill-rule="nonzero"/></g></g><path stroke-linecap="butt" transform="matrix(0.702196, -0.265465, 0.265217, 0.701541, 184.932487, 223.886426)" fill="none" stroke-linejoin="miter" d="M -0.00238111 2.499593 L 66.940794 2.501781 " stroke="#facb3b" stroke-width="5" stroke-opacity="1" stroke-miterlimit="4"/><g clip-path="url(#15a16197ba)"><g clip-path="url(#3189077536)"><path fill="#facb3b" d="M 231.90625 194.199219 L 252.132812 194.199219 L 252.132812 214.421875 L 231.90625 214.421875 Z M 231.90625 194.199219 " fill-opacity="1" fill-rule="nonzero"/></g></g><path stroke-linecap="butt" transform="matrix(0.215791, -0.718519, 0.718305, 0.215726, 243.13093, 194.080226)" fill="none" stroke-linejoin="miter" d="M -0.00233087 2.499431 L 156.96099 2.499224 " stroke="#facb3b" stroke-width="5" stroke-opacity="1" stroke-miterlimit="4"/><g clip-path="url(#969f528201)"><g clip-path="url(#8425281cb8)"><path fill="#facb3b" d="M 271.585938 62.078125 L 291.8125 62.078125 L 291.8125 82.300781 L 271.585938 82.300781 Z M 271.585938 62.078125 " fill-opacity="1" fill-rule="nonzero"/></g></g></svg>